<svg xmlns="http://www.w3.org/2000/svg" viewBox="0 0 410 404"><defs><linearGradient id="a" x1="16.434%" x2="76.988%" y1="1.419%" y2="98.04%"><stop offset="0%" stop-color="#41d1ff"/><stop offset="100%" stop-color="#bd34fe"/></linearGradient><linearGradient id="b" x1="40.597%" x2="80.44%" y1="37.862%" y2="87.397%"><stop offset="0%" stop-color="#ffea83"/><stop offset="8.333%" stop-color="#ffdd35"/><stop offset="100%" stop-color="#ffa800"/></linearGradient></defs><path fill="url(#a)" d="M399.641 59.525 215.211 388.506c-4.621 8.284-16.829 8.28-21.444-.008L9.276 59.523c-4.994-8.968 2.515-19.754 12.782-18.232l178.74 26.575a12 12 0 0 0 3.508-.001l182.559-26.58c10.27-1.497 17.771 9.302 12.77 18.268Z"/><path fill="url(#b)" d="m292.965 1.574-99.923 20.083a6 6 0 0 0-4.764 4.522l-19.868 99.092a6 6 0 0 0 7.002 7.042l27.512-3.85c4.212-.59 7.972 2.79 7.596 7.045l-5.36 59.78c-.39 4.347 3.642 7.873 7.875 6.922l17.06-3.743c4.24-.931 8.164 2.603 7.767 6.951l-10.211 109.926c-.516 5.547 7.256 7.993 10.02 3.042l1.154-2.1 126.669-251.816c2.3-4.573-1.77-9.72-6.789-8.75l-42.042 7.994c-4.264.811-7.932-2.959-6.917-7.177l27.779-115.21c1.02-4.23-2.68-8.139-7-7.175Z"/></svg>